<svg width="1400" height="1400" xmlns="http://www.w3.org/2000/svg">
  <rect width="1400" height="1400" fill="#ffffff"/>
  
  <text x="700" y="50" font-family="Arial" font-size="36" font-weight="bold" text-anchor="middle" fill="#333333">GNYANSETU - Student Learning Journey</text>
  
  <circle cx="700" cy="700" r="150" fill="#f0f0f0" stroke="#333333" stroke-width="3"/>
  <text x="700" y="680" font-family="Arial" font-size="28" font-weight="bold" text-anchor="middle" fill="#333333">GNYANSETU</text>
  <text x="700" y="710" font-family="Arial" font-size="20" text-anchor="middle" fill="#666666">AI Virtual Teacher</text>
  <text x="700" y="735" font-family="Arial" font-size="18" text-anchor="middle" fill="#666666">Platform</text>
  
  <circle cx="100" cy="700" r="70" fill="#7b2cbf" stroke="#5a189a" stroke-width="5"/>
  <text x="100" y="695" font-family="Arial" font-size="22" font-weight="bold" text-anchor="middle" fill="#ffffff">STUDENT</text>
  <text x="100" y="720" font-family="Arial" font-size="18" text-anchor="middle" fill="#ffffff">START/END</text>
  
  <circle cx="300" cy="250" r="90" fill="#0096c7" stroke="#0077b6" stroke-width="4"/>
  <text x="300" y="235" font-family="Arial" font-size="20" font-weight="bold" text-anchor="middle" fill="#ffffff">1. Login</text>
  <text x="300" y="260" font-family="Arial" font-size="16" text-anchor="middle" fill="#ffffff">Authentication</text>
  <text x="300" y="280" font-family="Arial" font-size="16" text-anchor="middle" fill="#ffffff">JWT Token</text>
  
  <circle cx="700" cy="150" r="90" fill="#00d9ff" stroke="#00b4d8" stroke-width="4"/>
  <text x="700" y="135" font-family="Arial" font-size="20" font-weight="bold" text-anchor="middle" fill="#000000">2. Dashboard</text>
  <text x="700" y="160" font-family="Arial" font-size="16" text-anchor="middle" fill="#000000">View Lessons</text>
  <text x="700" y="180" font-family="Arial" font-size="16" text-anchor="middle" fill="#000000">Upload PDF</text>
  
  <circle cx="1100" cy="250" r="90" fill="#06ffa5" stroke="#00d68f" stroke-width="4"/>
  <text x="1100" y="235" font-family="Arial" font-size="20" font-weight="bold" text-anchor="middle" fill="#000000">3. AI Process</text>
  <text x="1100" y="260" font-family="Arial" font-size="16" text-anchor="middle" fill="#000000">Extract + OCR</text>
  <text x="1100" y="280" font-family="Arial" font-size="16" text-anchor="middle" fill="#000000">Gemini 2.0</text>
  
  <circle cx="1300" cy="700" r="90" fill="#ff006e" stroke="#d00060" stroke-width="4"/>
  <text x="1300" y="685" font-family="Arial" font-size="20" font-weight="bold" text-anchor="middle" fill="#ffffff">4. Lesson</text>
  <text x="1300" y="710" font-family="Arial" font-size="16" text-anchor="middle" fill="#ffffff">Generated</text>
  <text x="1300" y="730" font-family="Arial" font-size="16" text-anchor="middle" fill="#ffffff">Ready to Learn</text>
  
  <circle cx="1100" cy="1150" r="90" fill="#ffea00" stroke="#ffd60a" stroke-width="4"/>
  <text x="1100" y="1135" font-family="Arial" font-size="20" font-weight="bold" text-anchor="middle" fill="#000000">5. Teaching</text>
  <text x="1100" y="1160" font-family="Arial" font-size="16" text-anchor="middle" fill="#000000">WebSocket</text>
  <text x="1100" y="1180" font-family="Arial" font-size="16" text-anchor="middle" fill="#000000">9-Zone Canvas</text>
  
  <circle cx="700" cy="1250" r="90" fill="#ff9e00" stroke="#ff8500" stroke-width="4"/>
  <text x="700" y="1235" font-family="Arial" font-size="20" font-weight="bold" text-anchor="middle" fill="#000000">6. Quiz</text>
  <text x="700" y="1260" font-family="Arial" font-size="16" text-anchor="middle" fill="#000000">MCQs + Notes</text>
  <text x="700" y="1280" font-family="Arial" font-size="16" text-anchor="middle" fill="#000000">Get Feedback</text>
  
  <circle cx="300" cy="1150" r="90" fill="#ff6b9d" stroke="#ff477e" stroke-width="4"/>
  <text x="300" y="1135" font-family="Arial" font-size="20" font-weight="bold" text-anchor="middle" fill="#000000">7. Review</text>
  <text x="300" y="1160" font-family="Arial" font-size="16" text-anchor="middle" fill="#000000">Notes</text>
  <text x="300" y="1180" font-family="Arial" font-size="16" text-anchor="middle" fill="#000000">Performance</text>
  
  <defs>
    <marker id="arrow" markerWidth="12" markerHeight="12" refX="10" refY="4" orient="auto">
      <polygon points="0 0, 12 4, 0 8" fill="#333333"/>
    </marker>
    <marker id="arrowGreen" markerWidth="12" markerHeight="12" refX="10" refY="4" orient="auto">
      <polygon points="0 0, 12 4, 0 8" fill="#10b981"/>
    </marker>
  </defs>
  
  <path d="M 170 680 Q 220 600 265 315" stroke="#333333" stroke-width="5" fill="none" marker-end="url(#arrow)"/>
  <path d="M 375 210 Q 500 150 610 150" stroke="#333333" stroke-width="5" fill="none" marker-end="url(#arrow)"/>
  <path d="M 790 150 Q 920 150 1025 210" stroke="#333333" stroke-width="5" fill="none" marker-end="url(#arrow)"/>
  <path d="M 1175 315 Q 1250 450 1300 610" stroke="#333333" stroke-width="5" fill="none" marker-end="url(#arrow)"/>
  <path d="M 1300 790 Q 1280 950 1175 1085" stroke="#333333" stroke-width="5" fill="none" marker-end="url(#arrow)"/>
  <path d="M 1025 1190 Q 880 1250 790 1250" stroke="#333333" stroke-width="5" fill="none" marker-end="url(#arrow)"/>
  <path d="M 610 1250 Q 480 1250 375 1190" stroke="#333333" stroke-width="5" fill="none" marker-end="url(#arrow)"/>
  <path d="M 265 1085 Q 180 900 170 720" stroke="#10b981" stroke-width="5" fill="none" marker-end="url(#arrowGreen)"/>
  
  <line x1="370" y1="315" x2="580" y2="595" stroke="#cccccc" stroke-width="2" stroke-dasharray="5,5"/>
  <line x1="700" y1="240" x2="700" y2="550" stroke="#cccccc" stroke-width="2" stroke-dasharray="5,5"/>
  <line x1="1030" y1="315" x2="820" y2="595" stroke="#cccccc" stroke-width="2" stroke-dasharray="5,5"/>
  <line x1="1210" y1="700" x2="850" y2="700" stroke="#cccccc" stroke-width="2" stroke-dasharray="5,5"/>
  <line x1="1030" y1="1085" x2="820" y2="805" stroke="#cccccc" stroke-width="2" stroke-dasharray="5,5"/>
  <line x1="700" y1="1160" x2="700" y2="850" stroke="#cccccc" stroke-width="2" stroke-dasharray="5,5"/>
  <line x1="370" y1="1085" x2="580" y2="805" stroke="#cccccc" stroke-width="2" stroke-dasharray="5,5"/>
  
  <rect x="50" y="50" width="300" height="100" rx="8" fill="#e3f2fd" stroke="#2196f3" stroke-width="2"/>
  <text x="200" y="75" font-family="Arial" font-size="18" font-weight="bold" text-anchor="middle" fill="#333333">Key Technologies</text>
  <text x="200" y="95" font-family="Arial" font-size="14" text-anchor="middle" fill="#666666">React + FastAPI + Django</text>
  <text x="200" y="115" font-family="Arial" font-size="14" text-anchor="middle" fill="#666666">MongoDB + Gemini AI</text>
  <text x="200" y="135" font-family="Arial" font-size="14" text-anchor="middle" fill="#666666">WebSocket + OAuth 2.0</text>
  
  <rect x="1050" y="50" width="300" height="100" rx="8" fill="#fff3e0" stroke="#ff9800" stroke-width="2"/>
  <text x="1200" y="75" font-family="Arial" font-size="18" font-weight="bold" text-anchor="middle" fill="#333333">Processing Time</text>
  <text x="1200" y="95" font-family="Arial" font-size="14" text-anchor="middle" fill="#666666">PDF Processing: 30-60s</text>
  <text x="1200" y="115" font-family="Arial" font-size="14" text-anchor="middle" fill="#666666">Teaching: Real-time (less than 2s)</text>
  <text x="1200" y="135" font-family="Arial" font-size="14" text-anchor="middle" fill="#666666">Visualization: less than 2s</text>
  
  <rect x="50" y="1270" width="350" height="90" rx="8" fill="#f9f9f9" stroke="#999999" stroke-width="2"/>
  <text x="225" y="1295" font-family="Arial" font-size="18" font-weight="bold" text-anchor="middle" fill="#333333">Journey Flow</text>
  <line x1="70" y1="1315" x2="150" y2="1315" stroke="#333333" stroke-width="5" marker-end="url(#arrow)"/>
  <text x="160" y="1320" font-family="Arial" font-size="14" fill="#666666">Process Steps</text>
  <line x1="70" y1="1340" x2="150" y2="1340" stroke="#10b981" stroke-width="5" marker-end="url(#arrowGreen)"/>
  <text x="160" y="1345" font-family="Arial" font-size="14" fill="#666666">Return and Repeat</text>
  
</svg>
